This is the complete STUDIO discog of Breaking Benjamin. All 4 studio albums, Saturate, We Are Not Alone, Phobia, and Dear Agony all directly ripped from CD to M4A file format for the best sound.

Encoding: 
M4A AAC Lossy
256 Kbps CBR
Channels: Stereo
44100Hz

Album Info:

Saturate (2002)
1. Wish I May
2. Medicate
3. Polyamorous
4. Skin
5. Natural Life
6. Next to Nothing
7. Water
8. Home
9. Phase
10. No Games
11. Sugarcoat
12. Shallow Bay (Hidden Bonus Track Forever Plays After)
Polyamorous Music Video


We Are Not Alone (2004)
1. So Cold
2. Simple Design
3. Follow
4. Firefly
5. Break My Fall
6. Forget It
7. Sooner or Later
8. Breakdown
9. Away
10. Believe
11. Rain
12. Rain (2005 Edition)


Phobia (2006)
1. Intro
2. The Diary of Jane
3. Breathe
4. You
5. Evil Angel
6. Until the End
7. Dance With the Devil
8. Topless
9. Here We Are
10. Unknown Soldier
11. Had Enough
12. You Fight Me
13. Outro


Dear Agony (2009)
1. Fade Away
2. I Will Not Bow
3. Crawl
4. Give Me A Sign
5. Hopeless
6. What Lies Beneath
7. Anthem of the Angels
8. Lights Out
9. Dear Agony
10. Into the Nothing
11.  Without You

Polyamorous Music Video Encoding:
Breaking Benjamin - SaturatePolyamorous.mov
Format                           : QuickTime
Format/Info                      : Original Apple specifications
Format settings                  : Compressed header
File size                        : 31.9 MiB
Duration                         : 2mn 57s
Overall bit rate                 : 1 508 Kbps
Movie name                       : Polyamorous
Performer                        : Breaking Benjamin
Encoded date                     : UTC 2002-09-19 11:43:09
Tagged date                      : UTC 2002-09-19 11:43:14
Writing library                  : Apple QuickTime
Copyright                        : ┬⌐ 2002 Hollywood Records

Video
ID                               : 1
Format                           : Sorenson 3
Codec ID                         : SVQ3
Codec ID/Info                    : Sorenson Media Video 3 (Apple QuickTime 5)
Duration                         : 2mn 57s
Duration_LastFrame               : 37ms
Bit rate                         : 1 132 Kbps
Width                            : 400 pixels
Height                           : 224 pixels
Display aspect ratio             : 16:9
Frame rate mode                  : Constant
Frame rate                       : 24.000 fps
Bits/(Pixel*Frame)               : 0.526
Stream size                      : 24.0 MiB (75%)
Language                         : English
Encoded date                     : UTC 2002-09-19 11:37:59
Tagged date                      : UTC 2002-09-19 11:43:14

Audio
ID                               : 2
Format                           : ADPCM
Format settings, Firm            : IMA
Codec ID                         : ima4
Duration                         : 2mn 57s
Bit rate mode                    : Constant
Bit rate                         : 352.8 Kbps
Channel(s)                       : 2 channels
Sampling rate                    : 44.1 KHz
Bit depth                        : 16 bits
Stream size                      : 7.47 MiB (23%)
Language                         : English
Encoded date                     : UTC 2002-09-19 11:43:04
Tagged date                      : UTC 2002-09-19 11:43:14

I hope you enjoy this! Seed, comment and rate ofcourse!

TyMoD